<?xml version="1.0" encoding="UTF-8" standalone="no"?>
<!-- Created with Inkscape (http://www.inkscape.org/) -->

<svg
   width="210mm"
   height="297mm"
   viewBox="0 0 210 297"
   version="1.1"
   id="svg1"
   inkscape:version="1.4-dev (1:1.4.0-dev+202403160151+300e768e46)"
   sodipodi:docname="thumbnail.svg"
   xmlns:inkscape="http://www.inkscape.org/namespaces/inkscape"
   xmlns:sodipodi="http://sodipodi.sourceforge.net/DTD/sodipodi-0.dtd"
   xmlns="http://www.w3.org/2000/svg"
   xmlns:svg="http://www.w3.org/2000/svg">
  <sodipodi:namedview
     id="namedview1"
     pagecolor="#000000"
     bordercolor="#000000"
     borderopacity="0.25"
     inkscape:showpageshadow="2"
     inkscape:pageopacity="0.0"
     inkscape:pagecheckerboard="true"
     inkscape:deskcolor="#000000"
     inkscape:document-units="mm"
     inkscape:export-bgcolor="#ffffff00"
     showborder="false"
     inkscape:zoom="0.29323157"
     inkscape:cx="2825.412"
     inkscape:cy="-28.987329"
     inkscape:window-width="1920"
     inkscape:window-height="1017"
     inkscape:window-x="0"
     inkscape:window-y="0"
     inkscape:window-maximized="1"
     inkscape:current-layer="layer1" />
  <defs
     id="defs1">
    <rect
       x="233.90851"
       y="815.06263"
       width="1485.4396"
       height="695.69695"
       id="rect2" />
    <rect
       x="233.90851"
       y="815.06262"
       width="2438.1108"
       height="1062.0436"
       id="rect2-5" />
  </defs>
  <g
     inkscape:label="Layer 1"
     inkscape:groupmode="layer"
     id="layer1">
    <rect
       style="fill:#000000;fill-opacity:1;stroke:none;stroke-width:1.065;stroke-linecap:round;stroke-linejoin:round;stroke-opacity:1;paint-order:fill markers stroke"
       id="rect3"
       width="899.1908"
       height="555.73047"
       x="229.85698"
       y="-367.19644" />
    <path
       id="path2-6-4-6"
       style="fill:#ffffff;fill-opacity:1;stroke:none;stroke-width:1.065;stroke-linecap:round;stroke-linejoin:round;stroke-opacity:1;paint-order:fill markers stroke"
       d="m -698.43927,-233.57217 a 89.323303,89.323303 0 0 0 -89.32375,89.32373 89.323303,89.323303 0 0 0 89.32375,89.323235 89.323303,89.323303 0 0 0 89.32323,-89.323235 89.323303,89.323303 0 0 0 -89.32323,-89.32373 z m 0,44.66186 a 44.661652,44.661652 0 0 1 44.66135,44.66187 44.661652,44.661652 0 0 1 -44.66135,44.661365 44.661652,44.661652 0 0 1 -44.66188,-44.661365 44.661652,44.661652 0 0 1 44.66188,-44.66187 z" />
    <rect
       style="fill:#ffffff;stroke-width:1.065;stroke-linecap:round;stroke-linejoin:round;paint-order:fill markers stroke"
       id="rect1"
       width="44.661655"
       height="44.661655"
       x="-229.94232"
       y="-330.3324" />
    <rect
       style="fill:#ffffff;stroke-width:1.065;stroke-linecap:round;stroke-linejoin:round;paint-order:fill markers stroke"
       id="rect1-3"
       width="44.661655"
       height="44.661655"
       x="-556.31299"
       y="342.05341" />
    <rect
       style="fill:#ffffff;stroke-width:1.065;stroke-linecap:round;stroke-linejoin:round;paint-order:fill markers stroke"
       id="rect1-5-7"
       width="89.323311"
       height="89.323311"
       x="-231.81271"
       y="-452.37448" />
    <path
       id="rect1-5-7-4"
       style="fill:#ffffff;stroke-width:1.065;stroke-linecap:round;stroke-linejoin:round;paint-order:fill markers stroke"
       d="M -889.15865 53.717651 A 44.661652 44.661652 0 0 1 -933.82 98.379008 A 44.661652 44.661652 0 0 1 -933.82052 98.379008 L -933.82052 143.04088 A 89.323303 89.323303 0 0 0 -933.82 143.04088 A 89.323303 89.323303 0 0 0 -844.49677 53.717651 L -889.15865 53.717651 z " />
    <text
       xml:space="preserve"
       transform="matrix(0.26458333,0,0,0.26458333,483.38805,-182.80154)"
       id="text1"
       style="font-size:400px;line-height:1.05;font-family:sans-serif;text-align:center;letter-spacing:0px;word-spacing:0px;white-space:pre;shape-inside:url(#rect2);display:inline"><tspan
         x="376.62946"
         y="1134.1534"
         id="tspan4"><tspan
           style="font-weight:bold;font-family:'JetBrains Mono NL';-inkscape-font-specification:'JetBrains Mono NL Bold';fill:#ffffff"
           id="tspan1">state</tspan></tspan></text>
    <text
       xml:space="preserve"
       transform="matrix(0.26458333,0,0,0.26458333,272.22294,-368.37692)"
       id="text1-3"
       style="font-size:355.276px;line-height:1.05;font-family:sans-serif;text-align:center;letter-spacing:0px;word-spacing:0px;white-space:pre;shape-inside:url(#rect2-5);display:inline"><tspan
         x="493.7211"
         y="1098.4758"
         id="tspan6"><tspan
           style="font-weight:800;font-family:'JetBrains Mono NL';-inkscape-font-specification:'JetBrains Mono NL Ultra-Bold';fill:#ffffff"
           id="tspan5">interface</tspan></tspan></text>
    <circle
       style="fill:#ffffff;fill-opacity:1;stroke:none;stroke-width:1.065;stroke-linecap:round;stroke-linejoin:round;stroke-opacity:1;paint-order:fill markers stroke"
       id="path2"
       cx="-261.06998"
       cy="-211.24135"
       r="22.330826" />
    <circle
       style="fill:#ffffff;fill-opacity:1;stroke:none;stroke-width:1.065;stroke-linecap:round;stroke-linejoin:round;stroke-opacity:1;paint-order:fill markers stroke"
       id="path2-6"
       cx="-356.32758"
       cy="-263.3399"
       r="44.661652" />
    <circle
       style="fill:#ffffff;fill-opacity:1;stroke:none;stroke-width:1.065;stroke-linecap:round;stroke-linejoin:round;stroke-opacity:1;paint-order:fill markers stroke"
       id="path2-6-4"
       cx="-508.35855"
       cy="-352.66321"
       r="89.323303" />
    <path
       id="path2-6-4-6-7"
       style="fill:#ffffff;fill-opacity:1;stroke:none;stroke-width:1.065;stroke-linecap:round;stroke-linejoin:round;stroke-opacity:1;paint-order:fill markers stroke"
       d="m -759.65448,103.83488 a 89.323303,89.323303 0 0 0 -5.2e-4,0.007 89.323303,89.323303 0 0 0 89.32375,89.32323 89.323303,89.323303 0 0 0 89.32323,-89.32323 h -44.66187 a 44.661652,44.661652 0 0 1 -44.66136,44.66135 44.661652,44.661652 0 0 1 -44.66187,-44.66135 h -44.66136 z" />
    <rect
       style="fill:#ffffff;stroke-width:1.065;stroke-linecap:round;stroke-linejoin:round;paint-order:fill markers stroke"
       id="rect1-5-7-0"
       width="178.64662"
       height="89.323311"
       x="-104.22791"
       y="-452.37448" />
    <rect
       style="fill:#ffffff;stroke-width:1.065;stroke-linecap:round;stroke-linejoin:round;paint-order:fill markers stroke"
       id="rect1-0"
       width="89.323311"
       height="44.661655"
       x="-141.02292"
       y="-311.94376" />
    <circle
       style="fill:#c82c18;fill-opacity:1;stroke:none;stroke-width:1.065;stroke-linecap:round;stroke-linejoin:round;stroke-opacity:1;paint-order:fill markers stroke"
       id="path2-3"
       cx="-442.04016"
       cy="44.91473"
       transform="matrix(-0.98311506,-0.18298844,-0.18298844,0.98311506,0,0)"
       r="11.165413" />
    <circle
       style="fill:#c82c18;fill-opacity:1;stroke:none;stroke-width:1.065;stroke-linecap:round;stroke-linejoin:round;stroke-opacity:1;paint-order:fill markers stroke"
       id="path2-3-8"
       cx="-548.60699"
       cy="-32.273655"
       transform="matrix(-0.98311506,-0.18298844,-0.18298844,0.98311506,0,0)"
       r="11.165413" />
    <circle
       style="fill:#c82c18;fill-opacity:1;stroke:none;stroke-width:1.065;stroke-linecap:round;stroke-linejoin:round;stroke-opacity:1;paint-order:fill markers stroke"
       id="path2-6-9"
       cx="-469.81934"
       cy="11.09942"
       transform="matrix(-0.98311506,-0.18298844,-0.18298844,0.98311506,0,0)"
       r="22.330826" />
    <circle
       style="fill:#c82c18;fill-opacity:1;stroke:none;stroke-width:1.065;stroke-linecap:round;stroke-linejoin:round;stroke-opacity:1;paint-order:fill markers stroke"
       id="path2-6-9-1"
       cx="-469.81934"
       cy="-12.025112"
       transform="matrix(-0.98311506,-0.18298844,-0.18298844,0.98311506,0,0)"
       r="22.330826" />
    <circle
       style="fill:#c82c18;fill-opacity:1;stroke:none;stroke-width:1.065;stroke-linecap:round;stroke-linejoin:round;stroke-opacity:1;paint-order:fill markers stroke"
       id="path2-6-4-0"
       cx="-506.2041"
       cy="-18.24959"
       transform="matrix(-0.98311506,-0.18298844,-0.18298844,0.98311506,0,0)"
       r="44.661652" />
    <circle
       style="fill:#c82c18;fill-opacity:1;stroke:none;stroke-width:1.065;stroke-linecap:round;stroke-linejoin:round;stroke-opacity:1;paint-order:fill markers stroke"
       id="path2-3-0"
       cx="-525.64648"
       cy="-7.8854852"
       transform="matrix(-0.98311506,-0.18298844,-0.18298844,0.98311506,0,0)"
       r="33.496239" />
    <path
       id="path2-6-4-6-7-7"
       style="fill:#ffffff;fill-opacity:1;stroke:none;stroke-width:1.065;stroke-linecap:round;stroke-linejoin:round;stroke-opacity:1;paint-order:fill markers stroke"
       d="m -475.15038,-89.33122 a 89.323302,89.323302 0 0 0 -5.2e-4,0.008 A 89.323302,89.323302 0 0 0 -385.82716,0 a 89.323302,89.323302 0 0 0 89.32324,-89.32322 h -44.66186 a 44.661652,44.661652 0 0 1 -44.66138,44.66134 44.661652,44.661652 0 0 1 -44.66186,-44.66134 h -44.66136 z" />
    <path
       id="path2-6-4-6-7-4"
       style="fill:#ffffff;fill-opacity:1;stroke:none;stroke-width:1.065;stroke-linecap:round;stroke-linejoin:round;stroke-opacity:1;paint-order:fill markers stroke"
       d="m -475.15038,44.66736 a 89.323302,89.323302 0 0 1 -5.2e-4,-0.008 89.323302,89.323302 0 0 1 89.32374,-89.32324 89.323302,89.323302 0 0 1 89.32324,89.32324 h -44.66186 A 44.661652,44.661652 0 0 0 -385.82716,-0.002 44.661652,44.661652 0 0 0 -430.48902,44.65936 h -44.66136 z" />
    <path
       id="path2-6-4-6-7-7-9"
       style="fill:#ffffff;fill-opacity:1;stroke:none;stroke-width:1.065;stroke-linecap:round;stroke-linejoin:round;stroke-opacity:1;paint-order:fill markers stroke"
       d="m -318.82786,-111.6549 a 89.323302,89.323302 0 0 0 -0.006,-5.2e-4 89.323302,89.323302 0 0 0 -89.32324,89.32374 89.323302,89.323302 0 0 0 89.32324,89.32324 V 22.32968 a 44.661652,44.661652 0 0 1 -44.66234,-44.66136 44.661652,44.661652 0 0 1 44.66134,-44.66186 v -44.66136 z" />
    <path
       id="path2-6-4-6-7-4-7"
       style="fill:#ffffff;fill-opacity:1;stroke:none;stroke-width:1.065;stroke-linecap:round;stroke-linejoin:round;stroke-opacity:1;paint-order:fill markers stroke"
       d="m -452.82644,-111.6549 a 89.323302,89.323302 0 0 1 0.006,-5.2e-4 89.323302,89.323302 0 0 1 89.32322,89.32374 89.323302,89.323302 0 0 1 -89.32322,89.32324 V 22.32968 a 44.661652,44.661652 0 0 0 44.66234,-44.66136 44.661652,44.661652 0 0 0 -44.66132,-44.66186 v -44.66136 z" />
    <path
       id="path2-6-4-6-7-43"
       style="fill:#ffffff;fill-opacity:1;stroke:none;stroke-width:1.065;stroke-linecap:round;stroke-linejoin:round;stroke-opacity:1;paint-order:fill markers stroke"
       d="M -556.31281 297.39167 A 89.323303 89.323303 0 0 0 -556.31333 297.3989 A 89.323303 89.323303 0 0 0 -556.31333 297.40252 A 44.661652 44.661652 0 0 1 -600.9504 342.05819 A 89.323303 89.323303 0 0 0 -600.97417 342.05664 A 89.323303 89.323303 0 0 0 -600.97469 342.05664 L -600.97469 386.72213 A 89.323303 89.323303 0 0 0 -600.97417 386.72213 A 89.323303 89.323303 0 0 0 -600.9504 386.72058 A 44.661652 44.661652 0 0 1 -556.31333 431.37625 A 89.323303 89.323303 0 0 0 -556.31333 431.37677 L -511.65094 431.37677 A 89.323303 89.323303 0 0 0 -511.65094 431.37625 A 44.661652 44.661652 0 0 1 -467.01335 386.72058 A 89.323303 89.323303 0 0 0 -466.98958 386.72213 L -466.98958 342.05664 A 89.323303 89.323303 0 0 0 -467.01335 342.05819 A 44.661652 44.661652 0 0 1 -511.65094 297.40252 A 89.323303 89.323303 0 0 0 -511.65094 297.402 A 89.323303 89.323303 0 0 0 -511.65094 297.40149 A 89.323303 89.323303 0 0 0 -511.65094 297.40097 A 89.323303 89.323303 0 0 0 -511.65094 297.40045 A 89.323303 89.323303 0 0 0 -511.65094 297.39993 A 89.323303 89.323303 0 0 0 -511.65094 297.39942 A 89.323303 89.323303 0 0 0 -511.65094 297.3989 L -556.31281 297.3989 L -556.31281 297.39167 z M -533.98188 356.19118 A 89.323303 89.323303 0 0 0 -525.78393 364.38913 A 89.323303 89.323303 0 0 0 -533.98188 372.58759 A 89.323303 89.323303 0 0 0 -542.17983 364.38913 A 89.323303 89.323303 0 0 0 -533.98188 356.19118 z " />
    <path
       id="rect1-5-7-4-4-8-0"
       style="fill:#ffffff;fill-opacity:0.205719;stroke-width:1.065;stroke-linecap:round;stroke-linejoin:round;paint-order:fill markers stroke"
       d="m 523.10303,-255.37407 a 44.661652,44.661652 0 0 0 -44.6613,44.66136 44.661652,44.661652 0 0 0 0,5.2e-4 h -44.66192 a 89.323303,89.323303 0 0 1 0,-5.2e-4 89.323303,89.323303 0 0 1 89.32322,-89.32324 z" />
    <path
       id="rect1-5-2-0-7-9-8"
       style="fill:#00a8fc;fill-opacity:1;stroke-width:1.065;stroke-linecap:round;stroke-linejoin:round;paint-order:fill markers stroke"
       d="m 708.17031,17.277106 -126.32255,-10e-6 63.16154,-63.16099 z" />
    <path
       id="rect1-5-2-0-7-9-8-5"
       style="fill:#00a8fc;fill-opacity:1;stroke-width:1.065;stroke-linecap:round;stroke-linejoin:round;paint-order:fill markers stroke"
       d="m 921.22647,-37.981706 -126.32252,1.1e-5 63.16152,63.161009 z" />
    <rect
       style="fill:#ffffff;fill-opacity:0.214041;stroke-width:1.065;stroke-linecap:round;stroke-linejoin:round;paint-order:fill markers stroke"
       id="rect1-0-8-3"
       width="140.86406"
       height="44.661655"
       x="-178.84583"
       y="835.73431"
       transform="matrix(0,1,1,0,0,0)" />
    <rect
       style="fill:#ffffff;fill-opacity:0.214041;stroke-width:1.065;stroke-linecap:round;stroke-linejoin:round;paint-order:fill markers stroke"
       id="rect1-0-8-8-9"
       width="133.98497"
       height="44.661655"
       x="76.727852"
       y="-478.44165"
       transform="matrix(0,-1,-1,0,0,0)" />
    <rect
       style="fill:#ffffff;fill-opacity:0.214041;stroke-width:1.065;stroke-linecap:round;stroke-linejoin:round;paint-order:fill markers stroke"
       id="rect1-0-8-8-9-9"
       width="101.05775"
       height="44.661655"
       x="-118.33482"
       y="-669.89197"
       transform="matrix(0,-1,-1,0,0,0)" />
    <rect
       style="fill:#ffffff;fill-opacity:0.214041;stroke-width:1.065;stroke-linecap:round;stroke-linejoin:round;paint-order:fill markers stroke"
       id="rect1-0-8-8-4"
       width="44.661655"
       height="267.96994"
       x="255.3739"
       y="-791.073"
       transform="matrix(0,-1,-1,0,0,0)" />
    <path
       id="rect1-5-2-0-7-9-3"
       style="fill:#c82c18;fill-opacity:1;stroke-width:1.065;stroke-linecap:round;stroke-linejoin:round;paint-order:fill markers stroke"
       d="m 537.1617,-197.06029 -31.80705,-59.44098 -30.17552,32.92588 z"
       sodipodi:nodetypes="cccc" />
    <rect
       style="fill:#c82c18;fill-opacity:1;stroke-width:1.065;stroke-linecap:round;stroke-linejoin:round;paint-order:fill markers stroke"
       id="rect1-0-7-7-6"
       width="89.323311"
       height="44.661655"
       x="-199.25452"
       y="485.87875"
       transform="rotate(-137.49547)" />
    <path
       id="rect1-5-2-0-7-94"
       style="fill:#c82c18;fill-opacity:1;stroke-width:1.065;stroke-linecap:round;stroke-linejoin:round;paint-order:fill markers stroke"
       d="m 794.90395,-210.71218 126.32252,1e-5 -63.1615,63.161 z" />
    <path
       id="rect1-5-7-4-4-8"
       style="fill:#ffffff;fill-opacity:0.215686;stroke-width:1.065;stroke-linecap:round;stroke-linejoin:round;paint-order:fill markers stroke"
       d="m 791.07295,-255.37406 a 44.661652,44.661652 0 0 1 44.6613,44.66136 44.661652,44.661652 0 0 1 0,5.2e-4 h 44.66192 a 89.323303,89.323303 0 0 0 0,-5.2e-4 89.323303,89.323303 0 0 0 -89.32322,-89.32324 z" />
    <path
       id="rect1-5-7-4-4-8-3"
       style="fill:#c82c18;fill-opacity:1;stroke-width:1.065;stroke-linecap:round;stroke-linejoin:round;paint-order:fill markers stroke"
       d="m 925.05778,-255.37406 a 44.661652,44.661652 0 0 0 -44.6613,44.66136 44.661652,44.661652 0 0 0 0,5.2e-4 h -44.66192 a 89.323303,89.323303 0 0 1 0,-5.2e-4 89.323303,89.323303 0 0 1 89.32322,-89.32324 z" />
  </g>
</svg>
